<?xml version="1.0" encoding="UTF-8" standalone="no"?>
<!-- Created with Inkscape (http://www.inkscape.org/) -->

<svg
   xmlns:dc="http://purl.org/dc/elements/1.1/"
   xmlns:cc="http://creativecommons.org/ns#"
   xmlns:rdf="http://www.w3.org/1999/02/22-rdf-syntax-ns#"
   xmlns:svg="http://www.w3.org/2000/svg"
   xmlns="http://www.w3.org/2000/svg"
   xmlns:sodipodi="http://sodipodi.sourceforge.net/DTD/sodipodi-0.dtd"
   xmlns:inkscape="http://www.inkscape.org/namespaces/inkscape"
   width="30"
   height="40"
   id="svg2"
   version="1.1"
   inkscape:version="0.48.4 r9939"
   sodipodi:docname="Nuovo documento 1">
  <defs
     id="defs4" />
  <sodipodi:namedview
     id="base"
     pagecolor="#ffffff"
     bordercolor="#666666"
     borderopacity="1.0"
     inkscape:pageopacity="0.0"
     inkscape:pageshadow="2"
     inkscape:zoom="11.2"
     inkscape:cx="17.92001"
     inkscape:cy="17.499472"
     inkscape:document-units="px"
     inkscape:current-layer="layer1"
     showgrid="false"
     inkscape:window-width="1366"
     inkscape:window-height="744"
     inkscape:window-x="0"
     inkscape:window-y="24"
     inkscape:window-maximized="1" />
  <metadata
     id="metadata7">
    <rdf:RDF>
      <cc:Work
         rdf:about="">
        <dc:format>image/svg+xml</dc:format>
        <dc:type
           rdf:resource="http://purl.org/dc/dcmitype/StillImage" />
        <dc:title></dc:title>
      </cc:Work>
    </rdf:RDF>
  </metadata>
  <g
     inkscape:label="Livello 1"
     inkscape:groupmode="layer"
     id="layer1"
     transform="translate(0,-1012.3622)">
    <g
       id="layer1-3"
       inkscape:label="Livello 1"
       transform="matrix(1.5000001,0,0,2,0,-1052.3622)">
      <g
         transform="matrix(0.05097593,0,0,0.0390625,-3.0498391,1032.3622)"
         id="g3">
        <g
           id="g5">
          <g
             id="g7">
            <path
               inkscape:connector-curvature="0"
               id="path9"
               d="m 219.164,59.797 h -86.975 c -13.293,0 -24.108,10.815 -24.108,24.108 v 36.062 c 0,13.293 10.815,24.108 24.108,24.108 h 86.975 c 13.293,0 24.108,-10.815 24.108,-24.108 V 83.905 c 0,-13.293 -10.815,-24.108 -24.108,-24.108 z m 7.71,60.172 c 0,4.251 -3.459,7.71 -7.71,7.71 h -86.975 c -4.251,0 -7.71,-3.459 -7.71,-7.71 V 83.905 c 0,-4.251 3.459,-7.71 7.71,-7.71 h 86.975 c 4.251,0 7.71,3.459 7.71,7.71 v 36.064 z" />
            <path
               inkscape:connector-curvature="0"
               id="path11"
               d="m 379.811,59.797 h -86.975 c -13.293,0 -24.108,10.815 -24.108,24.108 v 36.062 c 0,13.293 10.815,24.108 24.108,24.108 h 86.975 c 13.293,0 24.108,-10.815 24.108,-24.108 V 83.905 C 403.92,70.612 393.105,59.797 379.811,59.797 z m 7.711,60.172 c 0,4.251 -3.459,7.71 -7.71,7.71 h -86.975 c -4.251,0 -7.71,-3.459 -7.71,-7.71 V 83.905 c 0,-4.251 3.459,-7.71 7.71,-7.71 h 86.975 c 4.251,0 7.71,3.459 7.71,7.71 v 36.064 z" />
            <path
               inkscape:connector-curvature="0"
               id="path13"
               d="M 452.171,27.423 C 452.171,12.302 439.87,0 424.748,0 H 87.252 C 72.129,0 59.829,12.302 59.829,27.423 c 0,15.121 12.301,27.423 27.423,27.423 3.978,0 7.758,-0.858 11.174,-2.389 -9.363,9.054 -15.201,21.731 -15.201,35.752 v 63.584 c -2.758,2.463 -4.507,6.034 -4.507,10.015 v 48.258 c 0,3.98 1.749,7.551 4.507,10.014 v 206.424 c 0,14.019 5.837,26.694 15.195,35.747 -8.959,4.129 -15.195,13.188 -15.195,23.682 0,14.373 11.693,26.067 26.066,26.067 h 293.42 c 14.373,0 26.066,-11.694 26.066,-26.067 0,-10.495 -6.237,-19.553 -15.195,-23.682 9.36,-9.053 15.195,-21.727 15.195,-35.747 V 220.079 c 2.758,-2.463 4.508,-6.034 4.508,-10.014 v -48.258 c 0,-3.98 -1.749,-7.552 -4.508,-10.015 V 88.208 c 0,-14.021 -5.839,-26.698 -15.201,-35.752 3.415,1.53 7.194,2.389 11.174,2.389 15.12,10e-4 27.421,-12.301 27.421,-27.422 z M 87.252,38.448 c -6.079,0 -11.025,-4.946 -11.025,-11.025 0,-6.079 4.946,-11.025 11.025,-11.025 6.08,0 11.026,4.946 11.026,11.025 -0.002,6.079 -4.947,11.025 -11.026,11.025 z m 25.1,-22.05 h 287.294 c -1.489,3.376 -2.322,7.105 -2.322,11.025 0,6.722 2.436,12.883 6.464,17.657 -7.3,-4.211 -15.757,-6.632 -24.773,-6.632 H 132.983 c -9.017,0 -17.473,2.423 -24.773,6.632 4.03,-4.775 6.464,-10.935 6.464,-17.657 0,-3.92 -0.833,-7.649 -2.322,-11.025 z m -12.731,71.81 c 0,-18.396 14.966,-33.363 33.363,-33.363 h 246.032 c 18.396,0 33.363,14.966 33.363,33.363 v 60.158 H 99.621 V 88.208 z m 9.668,407.394 c -5.332,0 -9.668,-4.338 -9.668,-9.669 0,-5.332 4.337,-9.668 9.668,-9.668 5.331,0 9.669,4.337 9.669,9.668 0.001,5.331 -4.337,9.669 -9.669,9.669 z m 269.22,0 h -245.02 c 1.2,-2.992 1.867,-6.253 1.867,-9.669 0,-3.415 -0.667,-6.676 -1.867,-9.668 h 245.02 c -1.199,2.992 -1.867,6.253 -1.867,9.668 0,3.415 0.667,6.676 1.867,9.669 z m 24.201,0 c -5.332,0 -9.669,-4.338 -9.669,-9.669 0,-5.332 4.338,-9.668 9.669,-9.668 5.332,0 9.668,4.337 9.668,9.668 0.001,5.331 -4.337,9.669 -9.668,9.669 z M 379.016,459.866 H 132.983 c -18.396,0 -33.363,-14.966 -33.363,-33.362 v -203 h 312.758 v 203 h 0.001 c 0,18.397 -14.967,33.362 -33.363,33.362 z m 37.87,-295.101 v 42.342 H 95.113 V 164.765 H 416.886 z M 413.722,27.423 c 0,-6.079 4.946,-11.025 11.026,-11.025 6.079,0 11.025,4.946 11.025,11.025 0,6.079 -4.946,11.025 -11.025,11.025 -6.079,0 -11.026,-4.946 -11.026,-11.025 z" />
          </g>
        </g>
      </g>
    </g>
  </g>
</svg>
