<?xml version="1.0" encoding="UTF-8" standalone="no"?>
<svg
   xmlns:dc="http://purl.org/dc/elements/1.1/"
   xmlns:cc="http://creativecommons.org/ns#"
   xmlns:rdf="http://www.w3.org/1999/02/22-rdf-syntax-ns#"
   xmlns:svg="http://www.w3.org/2000/svg"
   xmlns="http://www.w3.org/2000/svg"
   xmlns:sodipodi="http://sodipodi.sourceforge.net/DTD/sodipodi-0.dtd"
   xmlns:inkscape="http://www.inkscape.org/namespaces/inkscape"
   height="20"
   viewBox="0 0 20 20"
   width="20"
   id="svg2"
   version="1.1"
   inkscape:version="0.48.4 r9939"
   sodipodi:docname="content_paste_grey.svg"
   style="fill:#ffffff">
  <metadata
     id="metadata12">
    <rdf:RDF>
      <cc:Work
         rdf:about="">
        <dc:format>image/svg+xml</dc:format>
        <dc:type
           rdf:resource="http://purl.org/dc/dcmitype/StillImage" />
      </cc:Work>
    </rdf:RDF>
  </metadata>
  <defs
     id="defs10" />
  <sodipodi:namedview
     pagecolor="#ffffff"
     bordercolor="#666666"
     borderopacity="1"
     objecttolerance="10"
     gridtolerance="10"
     guidetolerance="10"
     inkscape:pageopacity="0"
     inkscape:pageshadow="2"
     inkscape:window-width="1366"
     inkscape:window-height="744"
     id="namedview8"
     showgrid="false"
     inkscape:zoom="9.8333333"
     inkscape:cx="-4.6779662"
     inkscape:cy="12"
     inkscape:window-x="0"
     inkscape:window-y="24"
     inkscape:window-maximized="1"
     inkscape:current-layer="svg2" />
  <path
     d="M 15.833333,1.6666667 H 12.35 C 12,0.7 11.083333,0 10,0 8.9166667,0 8,0.7 7.65,1.6666667 H 4.1666667 C 3.25,1.6666667 2.5,2.4166667 2.5,3.3333333 V 16.666667 c 0,0.916666 0.75,1.666666 1.6666667,1.666666 H 15.833333 c 0.916667,0 1.666667,-0.75 1.666667,-1.666666 V 3.3333333 c 0,-0.9166666 -0.75,-1.6666666 -1.666667,-1.6666666 z m -5.833333,0 c 0.458333,0 0.833333,0.375 0.833333,0.8333333 0,0.4583333 -0.375,0.8333333 -0.833333,0.8333333 -0.4583333,0 -0.8333333,-0.375 -0.8333333,-0.8333333 0,-0.4583333 0.375,-0.8333333 0.8333333,-0.8333333 z M 15.833333,16.666667 H 4.1666667 V 3.3333333 h 1.6666666 v 2.5 h 8.3333337 v -2.5 h 1.666666 V 16.666667 z"
     id="path4"
     inkscape:connector-curvature="0"
     style="fill:#b3b3b3;fill-opacity:1" />
  <path
     d="M 0,0 H 20 V 20 H 0 z"
     id="path6"
     inkscape:connector-curvature="0"
     style="fill:none" />
</svg>
