<?xml version="1.0" encoding="UTF-8" standalone="no"?>
<svg
   xmlns:dc="http://purl.org/dc/elements/1.1/"
   xmlns:cc="http://creativecommons.org/ns#"
   xmlns:rdf="http://www.w3.org/1999/02/22-rdf-syntax-ns#"
   xmlns:svg="http://www.w3.org/2000/svg"
   xmlns="http://www.w3.org/2000/svg"
   xmlns:sodipodi="http://sodipodi.sourceforge.net/DTD/sodipodi-0.dtd"
   xmlns:inkscape="http://www.inkscape.org/namespaces/inkscape"
   height="20"
   viewBox="0 0 20 20"
   width="20"
   id="svg2"
   version="1.1"
   inkscape:version="0.48.4 r9939"
   sodipodi:docname="content_cut_grey.svg"
   style="fill:#ffffff">
  <metadata
     id="metadata18">
    <rdf:RDF>
      <cc:Work
         rdf:about="">
        <dc:format>image/svg+xml</dc:format>
        <dc:type
           rdf:resource="http://purl.org/dc/dcmitype/StillImage" />
      </cc:Work>
    </rdf:RDF>
  </metadata>
  <defs
     id="defs16" />
  <sodipodi:namedview
     pagecolor="#ffffff"
     bordercolor="#666666"
     borderopacity="1"
     objecttolerance="10"
     gridtolerance="10"
     guidetolerance="10"
     inkscape:pageopacity="0"
     inkscape:pageshadow="2"
     inkscape:window-width="1366"
     inkscape:window-height="744"
     id="namedview14"
     showgrid="false"
     inkscape:zoom="9.8333333"
     inkscape:cx="-4.6779662"
     inkscape:cy="12"
     inkscape:window-x="0"
     inkscape:window-y="24"
     inkscape:window-maximized="1"
     inkscape:current-layer="svg2" />
  <path
     d="M 0,0 H 20 V 20 H 0 z"
     id="path4"
     inkscape:connector-curvature="0"
     style="fill:none" />
  <circle
     cx="6"
     cy="18"
     r="2"
     id="circle6"
     sodipodi:cx="6"
     sodipodi:cy="18"
     sodipodi:rx="2"
     sodipodi:ry="2"
     style="fill:none"
     transform="scale(0.83333333,0.83333333)" />
  <circle
     cx="12"
     cy="12"
     r="0.5"
     id="circle8"
     sodipodi:cx="12"
     sodipodi:cy="12"
     sodipodi:rx="0.5"
     sodipodi:ry="0.5"
     style="fill:none"
     transform="scale(0.83333333,0.83333333)" />
  <circle
     cx="6"
     cy="6"
     r="2"
     id="circle10"
     sodipodi:cx="6"
     sodipodi:cy="6"
     sodipodi:rx="2"
     sodipodi:ry="2"
     style="fill:none"
     transform="scale(0.83333333,0.83333333)" />
  <path
     d="M 8.0333333,6.3666667 C 8.225,5.95 8.3333333,5.4916667 8.3333333,5 8.3333333,3.1583333 6.8416667,1.6666667 5,1.6666667 3.1583333,1.6666667 1.6666667,3.1583333 1.6666667,5 c 0,1.8416667 1.4916666,3.3333333 3.3333333,3.3333333 0.4916667,0 0.95,-0.1083333 1.3666667,-0.3 L 8.3333333,10 6.3666667,11.966667 C 5.95,11.775 5.4916667,11.666667 5,11.666667 c -1.8416667,0 -3.3333333,1.491666 -3.3333333,3.333333 0,1.841667 1.4916666,3.333333 3.3333333,3.333333 1.8416667,0 3.3333333,-1.491666 3.3333333,-3.333333 0,-0.491667 -0.1083333,-0.95 -0.3,-1.366667 L 10,11.666667 15.833333,17.5 h 2.5 V 16.666667 L 8.0333333,6.3666667 z M 5,6.6666667 C 4.0833333,6.6666667 3.3333333,5.925 3.3333333,5 3.3333333,4.075 4.0833333,3.3333333 5,3.3333333 5.9166667,3.3333333 6.6666667,4.075 6.6666667,5 c 0,0.925 -0.75,1.6666667 -1.6666667,1.6666667 z M 5,16.666667 C 4.0833333,16.666667 3.3333333,15.925 3.3333333,15 c 0,-0.925 0.75,-1.666667 1.6666667,-1.666667 0.9166667,0 1.6666667,0.741667 1.6666667,1.666667 0,0.925 -0.75,1.666667 -1.6666667,1.666667 z m 5,-6.25 C 9.7666667,10.416667 9.5833333,10.233333 9.5833333,10 9.5833333,9.7666667 9.7666667,9.5833333 10,9.5833333 c 0.233333,0 0.416667,0.1833334 0.416667,0.4166667 0,0.233333 -0.183334,0.416667 -0.416667,0.416667 z M 15.833333,2.5 l -5,5 L 12.5,9.1666667 18.333333,3.3333333 V 2.5 z"
     id="path12"
     inkscape:connector-curvature="0"
     style="fill:#b3b3b3;fill-opacity:1" />
</svg>
