<?xml version="1.0" encoding="UTF-8" standalone="no"?>
<svg
   xmlns:dc="http://purl.org/dc/elements/1.1/"
   xmlns:cc="http://creativecommons.org/ns#"
   xmlns:rdf="http://www.w3.org/1999/02/22-rdf-syntax-ns#"
   xmlns:svg="http://www.w3.org/2000/svg"
   xmlns="http://www.w3.org/2000/svg"
   xmlns:sodipodi="http://sodipodi.sourceforge.net/DTD/sodipodi-0.dtd"
   xmlns:inkscape="http://www.inkscape.org/namespaces/inkscape"
   height="20"
   viewBox="0 0 20 20"
   width="20"
   id="svg6897"
   version="1.1"
   inkscape:version="0.48.4 r9939"
   sodipodi:docname="rotate_right_white.svg"
   style="fill:#ffffff">
  <metadata
     id="metadata6907">
    <rdf:RDF>
      <cc:Work
         rdf:about="">
        <dc:format>image/svg+xml</dc:format>
        <dc:type
           rdf:resource="http://purl.org/dc/dcmitype/StillImage" />
      </cc:Work>
    </rdf:RDF>
  </metadata>
  <defs
     id="defs6905" />
  <sodipodi:namedview
     pagecolor="#ffffff"
     bordercolor="#666666"
     borderopacity="1"
     objecttolerance="10"
     gridtolerance="10"
     guidetolerance="10"
     inkscape:pageopacity="0"
     inkscape:pageshadow="2"
     inkscape:window-width="1366"
     inkscape:window-height="744"
     id="namedview6903"
     showgrid="false"
     inkscape:zoom="9.8333333"
     inkscape:cx="12"
     inkscape:cy="12"
     inkscape:window-x="0"
     inkscape:window-y="24"
     inkscape:window-maximized="1"
     inkscape:current-layer="svg6897" />
  <path
     d="m -2,-0.4 h 24 v 24 H -2 z"
     id="path6899"
     inkscape:connector-curvature="0"
     style="fill:none" />
  <path
     d="M 13.55,5.15 9,0.6 V 3.67 C 5.06,4.16 2,7.52 2,11.6 c 0,4.08 3.05,7.44 7,7.93 V 17.51 C 6.16,17.03 4,14.57 4,11.6 4,8.63 6.16,6.17 9,5.69 V 9.6 l 4.55,-4.45 z m 4.38,5.45 C 17.76,9.21 17.21,7.87 16.31,6.71 l -1.42,1.42 c 0.54,0.75 0.88,1.6 1.02,2.47 h 2.02 z M 11,17.5 v 2.02 c 1.39,-0.17 2.74,-0.71 3.9,-1.61 L 13.46,16.47 C 12.71,17.01 11.87,17.36 11,17.5 z m 3.89,-2.42 1.42,1.41 c 0.9,-1.16 1.45,-2.5 1.62,-3.89 h -2.02 c -0.14,0.87 -0.48,1.72 -1.02,2.48 z"
     id="path6901"
     inkscape:connector-curvature="0" />
</svg>
