<?xml version="1.0" encoding="UTF-8" standalone="no"?>
<svg
   xmlns:dc="http://purl.org/dc/elements/1.1/"
   xmlns:cc="http://creativecommons.org/ns#"
   xmlns:rdf="http://www.w3.org/1999/02/22-rdf-syntax-ns#"
   xmlns:svg="http://www.w3.org/2000/svg"
   xmlns="http://www.w3.org/2000/svg"
   xmlns:sodipodi="http://sodipodi.sourceforge.net/DTD/sodipodi-0.dtd"
   xmlns:inkscape="http://www.inkscape.org/namespaces/inkscape"
   height="20"
   viewBox="0 0 20 20"
   width="20"
   id="svg6459"
   version="1.1"
   inkscape:version="0.48.4 r9939"
   sodipodi:docname="rotate_left_grey.svg"
   style="fill:#b3b3b3">
  <metadata
     id="metadata6469">
    <rdf:RDF>
      <cc:Work
         rdf:about="">
        <dc:format>image/svg+xml</dc:format>
        <dc:type
           rdf:resource="http://purl.org/dc/dcmitype/StillImage" />
      </cc:Work>
    </rdf:RDF>
  </metadata>
  <defs
     id="defs6467" />
  <sodipodi:namedview
     pagecolor="#ffffff"
     bordercolor="#666666"
     borderopacity="1"
     objecttolerance="10"
     gridtolerance="10"
     guidetolerance="10"
     inkscape:pageopacity="0"
     inkscape:pageshadow="2"
     inkscape:window-width="1366"
     inkscape:window-height="744"
     id="namedview6465"
     showgrid="false"
     inkscape:zoom="9.8333333"
     inkscape:cx="12"
     inkscape:cy="12"
     inkscape:window-x="0"
     inkscape:window-y="24"
     inkscape:window-maximized="1"
     inkscape:current-layer="svg6459" />
  <path
     d="m -2,-0.4 h 24 v 24 H -2 z"
     id="path6461"
     inkscape:connector-curvature="0"
     style="fill:none" />
  <path
     d="M 5.11,8.13 3.7,6.71 C 2.8,7.87 2.24,9.21 2.07,10.6 H 4.09 C 4.23,9.73 4.58,8.88 5.11,8.13 z M 4.09,12.6 H 2.07 c 0.17,1.39 0.72,2.73 1.62,3.89 L 5.1,15.07 C 4.58,14.32 4.23,13.48 4.09,12.6 z m 1.01,5.32 c 1.16,0.9 2.51,1.44 3.9,1.61 V 17.5 C 8.13,17.35 7.29,17.01 6.54,16.47 L 5.1,17.92 z M 11,3.67 V 0.6 L 6.45,5.15 11,9.6 V 5.69 c 2.84,0.48 5,2.94 5,5.91 0,2.97 -2.16,5.43 -5,5.91 v 2.02 c 3.95,-0.49 7,-3.85 7,-7.93 0,-4.08 -3.05,-7.44 -7,-7.93 z"
     id="path6463"
     inkscape:connector-curvature="0" />
</svg>
