<?xml version="1.0" encoding="UTF-8" standalone="no"?>
<svg
   xmlns:dc="http://purl.org/dc/elements/1.1/"
   xmlns:cc="http://creativecommons.org/ns#"
   xmlns:rdf="http://www.w3.org/1999/02/22-rdf-syntax-ns#"
   xmlns:svg="http://www.w3.org/2000/svg"
   xmlns="http://www.w3.org/2000/svg"
   xmlns:sodipodi="http://sodipodi.sourceforge.net/DTD/sodipodi-0.dtd"
   xmlns:inkscape="http://www.inkscape.org/namespaces/inkscape"
   height="20"
   viewBox="0 0 20 20"
   width="20"
   id="svg2"
   version="1.1"
   inkscape:version="0.48.4 r9939"
   sodipodi:docname="rotate_left_45_grey.svg"
   style="fill:#b3b3b3">
  <metadata
     id="metadata12">
    <rdf:RDF>
      <cc:Work
         rdf:about="">
        <dc:format>image/svg+xml</dc:format>
        <dc:type
           rdf:resource="http://purl.org/dc/dcmitype/StillImage" />
      </cc:Work>
    </rdf:RDF>
  </metadata>
  <defs
     id="defs10" />
  <sodipodi:namedview
     pagecolor="#ffffff"
     bordercolor="#666666"
     borderopacity="1"
     objecttolerance="10"
     gridtolerance="10"
     guidetolerance="10"
     inkscape:pageopacity="0"
     inkscape:pageshadow="2"
     inkscape:window-width="1366"
     inkscape:window-height="744"
     id="namedview8"
     showgrid="false"
     inkscape:zoom="13.906434"
     inkscape:cx="12.252523"
     inkscape:cy="13.132749"
     inkscape:window-x="0"
     inkscape:window-y="-4"
     inkscape:window-maximized="1"
     inkscape:current-layer="svg2" />
  <path
     d="M -1.8696383,-0.476451 H 22.130362 v 24 H -1.8696383 z"
     id="path4"
     inkscape:connector-curvature="0"
     style="fill:none" />
  <path
     d="m 5.2403609,8.0535486 -1.41,-1.4199996 C 2.930361,7.7935494 2.3703625,9.1335486 2.2003602,10.523548 h 2.0200007 c 0.1399991,-0.8699998 0.4900015,-1.7199994 1.02,-2.4699994 z m -1.02,4.4700014 H 2.2003602 c 0.1700023,1.389998 0.72,2.73 1.6199999,3.889999 l 1.4099994,-1.420001 c -0.5199971,-0.75 -0.8699995,-1.59 -1.0099986,-2.469998 z m 1.0099986,5.319998 c 1.1600029,0.9 2.5100015,1.44 3.8999995,1.610002 v -2.030002 c -0.87,-0.15 -1.7099995,-0.489998 -2.4599995,-1.029998 l -1.44,1.449998 z M 11.13037,3.5935489 V 0.52354896 L 6.5803594,5.073549 11.13037,9.5235486 V 5.613549 c 2.839992,0.48 4.999992,2.94 4.999992,5.91 0,2.97 -2.16,5.43 -4.999992,5.91 v 2.020001 c 3.949992,-0.490001 6.999977,-3.850001 6.999977,-7.930001 0,-4.08 -3.049985,-7.44 -6.999977,-7.9300001 z"
     id="path6"
     inkscape:connector-curvature="0" />
  <text
     xml:space="preserve"
     style="font-size:32.51661301px;font-style:normal;font-weight:normal;line-height:0%;letter-spacing:0px;word-spacing:0px;fill:#000000;fill-opacity:1;stroke:none;font-family:Sans"
     x="5.3895469"
     y="15.564661"
     id="text2989"
     sodipodi:linespacing="0%"
     transform="scale(1.0355925,0.96563075)"><tspan
       sodipodi:role="line"
       id="tspan2991"
       x="5.3895469"
       y="15.564661"
       style="font-size:7.31623554px;fill:#b3b3b3;fill-opacity:1">45</tspan></text>
</svg>
