<?xml version="1.0" encoding="UTF-8" standalone="no"?>
<svg
   xmlns:dc="http://purl.org/dc/elements/1.1/"
   xmlns:cc="http://creativecommons.org/ns#"
   xmlns:rdf="http://www.w3.org/1999/02/22-rdf-syntax-ns#"
   xmlns:svg="http://www.w3.org/2000/svg"
   xmlns="http://www.w3.org/2000/svg"
   xmlns:sodipodi="http://sodipodi.sourceforge.net/DTD/sodipodi-0.dtd"
   xmlns:inkscape="http://www.inkscape.org/namespaces/inkscape"
   height="20"
   viewBox="0 0 20 20"
   width="20"
   id="svg2"
   version="1.1"
   inkscape:version="0.48.4 r9939"
   sodipodi:docname="rotate_right_45_grey.svg"
   style="fill:#b3b3b3">
  <metadata
     id="metadata12">
    <rdf:RDF>
      <cc:Work
         rdf:about="">
        <dc:format>image/svg+xml</dc:format>
        <dc:type
           rdf:resource="http://purl.org/dc/dcmitype/StillImage" />
      </cc:Work>
    </rdf:RDF>
  </metadata>
  <defs
     id="defs10" />
  <sodipodi:namedview
     pagecolor="#ffffff"
     bordercolor="#666666"
     borderopacity="1"
     objecttolerance="10"
     gridtolerance="10"
     guidetolerance="10"
     inkscape:pageopacity="0"
     inkscape:pageshadow="2"
     inkscape:window-width="1366"
     inkscape:window-height="744"
     id="namedview8"
     showgrid="false"
     inkscape:zoom="13.906434"
     inkscape:cx="12.252523"
     inkscape:cy="13.132749"
     inkscape:window-x="0"
     inkscape:window-y="24"
     inkscape:window-maximized="1"
     inkscape:current-layer="svg2" />
  <path
     d="M -1.8696383,-0.476451 H 22.130362 v 24 H -1.8696383 z"
     id="path4"
     inkscape:connector-curvature="0"
     style="fill:none" />
  <path
     d="m 15.090346,8.0535486 1.41,-1.4199996 c 0.9,1.1600004 1.459999,2.4999996 1.630001,3.889999 h -2.020001 c -0.139999,-0.8699998 -0.490001,-1.7199994 -1.02,-2.4699994 z m 1.02,4.4700014 h 2.020001 c -0.170002,1.389998 -0.72,2.73 -1.62,3.889999 l -1.409999,-1.420001 c 0.519997,-0.75 0.869999,-1.59 1.009998,-2.469998 z m -1.009998,5.319998 c -1.160003,0.9 -2.510002,1.44 -3.9,1.610002 v -2.030002 c 0.87,-0.15 1.71,-0.489998 2.46,-1.029998 l 1.44,1.449998 z M 9.2003372,3.5935489 V 0.52354896 L 13.750348,5.073549 9.2003372,9.5235486 V 5.613549 c -2.839992,0.48 -4.999992,2.94 -4.999992,5.91 0,2.97 2.16,5.43 4.999992,5.91 v 2.020001 c -3.949992,-0.490001 -6.999977,-3.850001 -6.999977,-7.930001 0,-4.08 3.049985,-7.44 6.999977,-7.9300001 z"
     id="path6"
     inkscape:connector-curvature="0" />
  <text
     xml:space="preserve"
     style="font-size:32.51661301px;font-style:normal;font-weight:normal;line-height:0%;letter-spacing:0px;word-spacing:0px;fill:#000000;fill-opacity:1;stroke:none;font-family:Sans"
     x="5.3895469"
     y="15.564661"
     id="text2989"
     sodipodi:linespacing="0%"
     transform="scale(1.0355925,0.96563075)"><tspan
       sodipodi:role="line"
       id="tspan2991"
       x="5.3895469"
       y="15.564661"
       style="font-size:7.31623554px;fill:#b3b3b3;fill-opacity:1">45</tspan></text>
</svg>
