<?xml version="1.0" encoding="UTF-8" standalone="no"?>
<svg
   xmlns:dc="http://purl.org/dc/elements/1.1/"
   xmlns:cc="http://creativecommons.org/ns#"
   xmlns:rdf="http://www.w3.org/1999/02/22-rdf-syntax-ns#"
   xmlns:svg="http://www.w3.org/2000/svg"
   xmlns="http://www.w3.org/2000/svg"
   xmlns:sodipodi="http://sodipodi.sourceforge.net/DTD/sodipodi-0.dtd"
   xmlns:inkscape="http://www.inkscape.org/namespaces/inkscape"
   height="20"
   viewBox="0 0 20 20"
   width="20"
   id="svg7010"
   version="1.1"
   inkscape:version="0.48.4 r9939"
   sodipodi:docname="settings_white.svg"
   style="fill:#ffffff">
  <metadata
     id="metadata7020">
    <rdf:RDF>
      <cc:Work
         rdf:about="">
        <dc:format>image/svg+xml</dc:format>
        <dc:type
           rdf:resource="http://purl.org/dc/dcmitype/StillImage" />
      </cc:Work>
    </rdf:RDF>
  </metadata>
  <defs
     id="defs7018" />
  <sodipodi:namedview
     pagecolor="#ffffff"
     bordercolor="#666666"
     borderopacity="1"
     objecttolerance="10"
     gridtolerance="10"
     guidetolerance="10"
     inkscape:pageopacity="0"
     inkscape:pageshadow="2"
     inkscape:window-width="1366"
     inkscape:window-height="744"
     id="namedview7016"
     showgrid="false"
     inkscape:zoom="9.8333333"
     inkscape:cx="-4.6779661"
     inkscape:cy="12"
     inkscape:window-x="0"
     inkscape:window-y="24"
     inkscape:window-maximized="1"
     inkscape:current-layer="svg7010" />
  <path
     d="M 0.40000001,0.39999949 H 19.6 V 19.6 H 0.40000001 z"
     id="path7012"
     inkscape:connector-curvature="0"
     style="fill:none;stroke:none;stroke-width:0.80000000999999998;stroke-opacity:1" />
  <path
     d="M 15.944,10.783999 C 15.975997,10.528 15.999995,10.272 15.999995,10 c 0,-0.272 -0.024,-0.528 -0.05599,-0.784 l 1.688,-1.32 c 0.152,-0.12 0.192,-0.336 0.096,-0.5120003 l -1.6,-2.7680001 c -0.096,-0.176 -0.312,-0.24 -0.488,-0.176 l -1.992,0.8 c -0.416,-0.32 -0.864,-0.584 -1.352,-0.784 l -0.304,-2.12 c -0.024,-0.192 -0.192,-0.336 -0.392,-0.336 H 8.4 c -0.2,0 -0.368,0.144 -0.392,0.336 l -0.304,2.12 c -0.488,0.2 -0.936,0.472 -1.352,0.784 l -1.992,-0.8 c -0.184,-0.072 -0.392,0 -0.488,0.176 l -1.6,2.7680001 C 2.168,7.56 2.216,7.776 2.368,7.896 l 1.688,1.32 C 4.024,9.472 4,9.736 4,10 c 0,0.264 0.024,0.528 0.056,0.783999 l -1.688,1.32 C 2.216,12.224 2.176,12.44 2.272,12.616 l 1.6,2.767999 C 3.968,15.56 4.184,15.624 4.36,15.56 l 1.992,-0.8 c 0.416,0.32 0.864,0.584 1.352,0.784 l 0.304,2.12 C 8.032,17.856 8.2,18 8.4,18 h 3.2 c 0.2,0 0.368,-0.144 0.392,-0.336 l 0.304,-2.12 c 0.488,-0.2 0.936,-0.472 1.352,-0.784 l 1.992,0.8 c 0.184,0.072 0.392,0 0.488,-0.176001 l 1.6,-2.767999 c 0.096,-0.176 0.05601,-0.392 -0.096,-0.512001 l -1.688,-1.32 z M 10,12.8 C 8.456,12.8 7.2,11.543999 7.2,10 7.2,8.456 8.456,7.1999996 10,7.1999996 c 1.544,0 2.8,1.2560004 2.8,2.8000004 0,1.543999 -1.256,2.8 -2.8,2.8 z"
     id="path7014"
     inkscape:connector-curvature="0"
     style="stroke:none;stroke-width:0.80000000999999998;stroke-opacity:1" />
</svg>
