<?xml version="1.0" encoding="UTF-8" standalone="no"?>
<!-- Created with Inkscape (http://www.inkscape.org/) -->

<svg
   xmlns:dc="http://purl.org/dc/elements/1.1/"
   xmlns:cc="http://creativecommons.org/ns#"
   xmlns:rdf="http://www.w3.org/1999/02/22-rdf-syntax-ns#"
   xmlns:svg="http://www.w3.org/2000/svg"
   xmlns="http://www.w3.org/2000/svg"
   xmlns:sodipodi="http://sodipodi.sourceforge.net/DTD/sodipodi-0.dtd"
   xmlns:inkscape="http://www.inkscape.org/namespaces/inkscape"
   width="24"
   height="24"
   viewBox="0 0 24 24"
   id="svg2"
   version="1.1"
   inkscape:version="0.48.4 r9939"
   sodipodi:docname="wall_black.svg">
  <defs
     id="defs4" />
  <sodipodi:namedview
     id="base"
     pagecolor="#ffffff"
     bordercolor="#666666"
     borderopacity="1.0"
     inkscape:pageopacity="0.0"
     inkscape:pageshadow="2"
     inkscape:zoom="15.839192"
     inkscape:cx="16.437617"
     inkscape:cy="5.9270503"
     inkscape:document-units="px"
     inkscape:current-layer="layer1"
     showgrid="false"
     inkscape:window-width="1366"
     inkscape:window-height="744"
     inkscape:window-x="0"
     inkscape:window-y="24"
     inkscape:window-maximized="1" />
  <metadata
     id="metadata7">
    <rdf:RDF>
      <cc:Work
         rdf:about="">
        <dc:format>image/svg+xml</dc:format>
        <dc:type
           rdf:resource="http://purl.org/dc/dcmitype/StillImage" />
        <dc:title />
      </cc:Work>
    </rdf:RDF>
  </metadata>
  <g
     inkscape:label="Livello 1"
     inkscape:groupmode="layer"
     id="layer1"
     transform="translate(0,-1028.3622)">
    <rect
       style="opacity:0.89542482;fill:#000000;fill-opacity:1;stroke:#0087ff;stroke-width:0;stroke-miterlimit:4;stroke-opacity:0.75119617;stroke-dasharray:none"
       id="rect4140"
       width="23.958672"
       x="135.35466"
       y="317.93268"
       height="0" />
    <path
       style="opacity:0.89542482;fill:#000000;fill-opacity:1;stroke:#0087ff;stroke-width:0;stroke-miterlimit:4;stroke-opacity:0.75119617;stroke-dasharray:none"
       d="m 0.12275822,1046.8504 0,5.5845 15.38556978,0 0,-5.5845 -15.38556978,0 z m 16.38384778,0 0,5.5845 7.574824,0 0,-5.5845 -7.574824,0 z"
       id="rect4142"
       inkscape:connector-curvature="0" />
    <path
       inkscape:connector-curvature="0"
       style="opacity:0.89542482;fill:#000000;fill-opacity:1;stroke:#0087ff;stroke-width:0;stroke-miterlimit:4;stroke-opacity:0.75119617;stroke-dasharray:none"
       d="m 24.045502,1040.7341 0,5.5845 -15.3855702,0 0,-5.5845 15.3855702,0 z m -16.3838485,0 0,5.5845 -7.57482331,0 0,-5.5845 7.57482331,0 z"
       id="rect4142-0" />
    <path
       inkscape:connector-curvature="0"
       style="opacity:0.89542482;fill:#000000;fill-opacity:1;stroke:#0087ff;stroke-width:0;stroke-miterlimit:4;stroke-opacity:0.75119617;stroke-dasharray:none"
       d="m 0.08683019,1034.5845 0,5.5845 15.38556981,0 0,-5.5845 -15.38556981,0 z m 16.38384781,0 0,5.5845 7.574824,0 0,-5.5845 -7.574824,0 z"
       id="rect4142-3" />
    <path
       inkscape:connector-curvature="0"
       style="opacity:0.89542482;fill:#000000;fill-opacity:1;stroke:#0087ff;stroke-width:0;stroke-miterlimit:4;stroke-opacity:0.75119617;stroke-dasharray:none"
       d="m 24.040101,1028.4349 0,5.5845 -15.3855699,0 0,-5.5845 15.3855699,0 z m -16.3838482,0 0,5.5845 -7.57482329,0 0,-5.5845 7.57482329,0 z"
       id="rect4142-2" />
  </g>
</svg>
