<?xml version="1.0" encoding="UTF-8" standalone="no"?>
<svg
   xmlns:dc="http://purl.org/dc/elements/1.1/"
   xmlns:cc="http://creativecommons.org/ns#"
   xmlns:rdf="http://www.w3.org/1999/02/22-rdf-syntax-ns#"
   xmlns:svg="http://www.w3.org/2000/svg"
   xmlns="http://www.w3.org/2000/svg"
   xmlns:xlink="http://www.w3.org/1999/xlink"
   xmlns:sodipodi="http://sodipodi.sourceforge.net/DTD/sodipodi-0.dtd"
   xmlns:inkscape="http://www.inkscape.org/namespaces/inkscape"
   height="20"
   viewBox="0 0 20 20"
   width="20"
   id="svg8786"
   version="1.1"
   inkscape:version="0.48.4 r9939"
   sodipodi:docname="zoom_out_map_white.svg"
   style="fill:#ffffff">
  <metadata
     id="metadata8800">
    <rdf:RDF>
      <cc:Work
         rdf:about="">
        <dc:format>image/svg+xml</dc:format>
        <dc:type
           rdf:resource="http://purl.org/dc/dcmitype/StillImage" />
      </cc:Work>
    </rdf:RDF>
  </metadata>
  <sodipodi:namedview
     pagecolor="#ffffff"
     bordercolor="#666666"
     borderopacity="1"
     objecttolerance="10"
     gridtolerance="10"
     guidetolerance="10"
     inkscape:pageopacity="0"
     inkscape:pageshadow="2"
     inkscape:window-width="1366"
     inkscape:window-height="744"
     id="namedview8798"
     showgrid="false"
     inkscape:zoom="9.8333333"
     inkscape:cx="-4.6779661"
     inkscape:cy="12"
     inkscape:window-x="0"
     inkscape:window-y="24"
     inkscape:window-maximized="1"
     inkscape:current-layer="svg8786" />
  <defs
     id="defs8788">
    <path
       d="M 0,0 H 24 V 24 H 0 z"
       id="a"
       inkscape:connector-curvature="0" />
  </defs>
  <clipPath
     id="b">
    <use
       overflow="visible"
       xlink:href="#a"
       id="use8792"
       style="overflow:visible"
       x="0"
       y="0"
       width="24"
       height="24" />
  </clipPath>
  <path
     clip-path="url(#b)"
     d="M 15,3 17.3,5.3 14.41,8.17 15.83,9.59 18.7,6.7 21,9 V 3 z M 3,9 5.3,6.7 8.17,9.59 9.59,8.17 6.7,5.3 9,3 H 3 z M 9,21 6.7,18.7 9.59,15.83 8.17,14.41 5.3,17.3 3,15 v 6 z M 21,15 18.7,17.3 15.83,14.41 14.41,15.83 17.3,18.7 15,21 h 6 z"
     id="path8794"
     inkscape:connector-curvature="0"
     transform="translate(-2,-2)"
     style="stroke:none;stroke-opacity:1" />
  <path
     clip-path="url(#b)"
     d="M 0,0 H 24 V 24 H 0 z"
     id="path8796"
     inkscape:connector-curvature="0"
     style="fill:none"
     transform="translate(-2,-2)" />
</svg>
