<?xml version="1.0" encoding="UTF-8" standalone="no"?>
<svg
   xmlns:dc="http://purl.org/dc/elements/1.1/"
   xmlns:cc="http://creativecommons.org/ns#"
   xmlns:rdf="http://www.w3.org/1999/02/22-rdf-syntax-ns#"
   xmlns:svg="http://www.w3.org/2000/svg"
   xmlns="http://www.w3.org/2000/svg"
   xmlns:sodipodi="http://sodipodi.sourceforge.net/DTD/sodipodi-0.dtd"
   xmlns:inkscape="http://www.inkscape.org/namespaces/inkscape"
   height="20"
   viewBox="0 0 20 20"
   width="20"
   id="svg8610"
   version="1.1"
   inkscape:version="0.48.4 r9939"
   sodipodi:docname="zoom_out_grey.svg"
   style="fill:#b3b3b3">
  <metadata
     id="metadata8620">
    <rdf:RDF>
      <cc:Work
         rdf:about="">
        <dc:format>image/svg+xml</dc:format>
        <dc:type
           rdf:resource="http://purl.org/dc/dcmitype/StillImage" />
      </cc:Work>
    </rdf:RDF>
  </metadata>
  <defs
     id="defs8618" />
  <sodipodi:namedview
     pagecolor="#ffffff"
     bordercolor="#666666"
     borderopacity="1"
     objecttolerance="10"
     gridtolerance="10"
     guidetolerance="10"
     inkscape:pageopacity="0"
     inkscape:pageshadow="2"
     inkscape:window-width="1366"
     inkscape:window-height="744"
     id="namedview8616"
     showgrid="false"
     inkscape:zoom="9.8333333"
     inkscape:cx="12"
     inkscape:cy="12"
     inkscape:window-x="0"
     inkscape:window-y="24"
     inkscape:window-maximized="1"
     inkscape:current-layer="svg8610" />
  <path
     d="m -2.7,-2.6 h 26 v 26 h -26 v -26 z"
     id="path8612"
     inkscape:connector-curvature="0"
     style="fill:none" />
  <path
     d="M 14.09166,12.56666 H 13.23584 L 12.9325,12.27416 C 13.99416,11.039161 14.63334,9.435836 14.63334,7.691666 14.63334,3.8025 11.48084,0.65 7.591666,0.65 3.7025,0.65 0.55,3.8025 0.55,7.691666 c 0,3.889174 3.1525,7.041674 7.041666,7.041674 1.744168,0 3.347494,-0.63918 4.582494,-1.70084 l 0.2925,0.30334 v 0.85582 l 5.41668,5.40584 1.61416,-1.61416 -5.40584,-5.41668 z m -6.499994,0 c -2.6975,0 -4.875,-2.177496 -4.875,-4.874994 0,-2.6975 2.1775,-4.875 4.875,-4.875 2.697494,0 4.874994,2.1775 4.874994,4.875 0,2.697498 -2.1775,4.874994 -4.874994,4.874994 z M 4.883334,7.15 H 10.3 V 8.233334 H 4.883334 z"
     id="path8614"
     inkscape:connector-curvature="0" />
</svg>
