<?xml version="1.0" encoding="UTF-8" standalone="no"?>
<!-- Created with Inkscape (http://www.inkscape.org/) -->

<svg
   xmlns:dc="http://purl.org/dc/elements/1.1/"
   xmlns:cc="http://creativecommons.org/ns#"
   xmlns:rdf="http://www.w3.org/1999/02/22-rdf-syntax-ns#"
   xmlns:svg="http://www.w3.org/2000/svg"
   xmlns="http://www.w3.org/2000/svg"
   xmlns:sodipodi="http://sodipodi.sourceforge.net/DTD/sodipodi-0.dtd"
   xmlns:inkscape="http://www.inkscape.org/namespaces/inkscape"
   width="24"
   height="24"
   viewBox="0 0 24 24"
   id="svg2"
   version="1.1"
   inkscape:version="0.48.4 r9939"
   sodipodi:docname="wall_white.svg">
  <defs
     id="defs4" />
  <sodipodi:namedview
     id="base"
     pagecolor="#ffffff"
     bordercolor="#666666"
     borderopacity="1"
     inkscape:pageopacity="0"
     inkscape:pageshadow="2"
     inkscape:zoom="15.839192"
     inkscape:cx="12.443037"
     inkscape:cy="6.803329"
     inkscape:document-units="px"
     inkscape:current-layer="layer1"
     showgrid="false"
     inkscape:window-width="1366"
     inkscape:window-height="744"
     inkscape:window-x="0"
     inkscape:window-y="24"
     inkscape:window-maximized="1"
     inkscape:showpageshadow="false"
     borderlayer="false"
     showborder="false" />
  <metadata
     id="metadata7">
    <rdf:RDF>
      <cc:Work
         rdf:about="">
        <dc:format>image/svg+xml</dc:format>
        <dc:type
           rdf:resource="http://purl.org/dc/dcmitype/StillImage" />
        <dc:title />
      </cc:Work>
    </rdf:RDF>
  </metadata>
  <g
     inkscape:label="Livello 1"
     inkscape:groupmode="layer"
     id="layer1"
     transform="translate(0,-1028.3622)">
    <rect
       style="opacity:1;fill:#ffffff;fill-opacity:1;stroke:#0087ff;stroke-width:0;stroke-miterlimit:4;stroke-opacity:0.75119617000000005;stroke-dasharray:none"
       id="rect4140"
       width="24"
       x="135.71428"
       y="263.83542"
       height="0" />
    <path
       style="opacity:1;fill:#ffffff;fill-opacity:1;stroke:#0087ff;stroke-width:0;stroke-miterlimit:4;stroke-opacity:0.75119617000000005;stroke-dasharray:none"
       d="m 0.11285062,1046.774 0,5.5845 15.38557038,0 0,-5.5845 -15.38557038,0 z m 16.38384838,0 0,5.5845 7.574823,0 0,-5.5845 -7.574823,0 z"
       id="rect4142"
       inkscape:connector-curvature="0" />
    <path
       inkscape:connector-curvature="0"
       style="opacity:1;fill:#ffffff;fill-opacity:1;stroke:#0087ff;stroke-width:0;stroke-miterlimit:4;stroke-opacity:0.75119617000000005;stroke-dasharray:none"
       d="m 24.035594,1040.6576 0,5.5846 -15.38557,0 0,-5.5846 15.38557,0 z m -16.3838479,0 0,5.5846 -7.57482351,0 0,-5.5846 7.57482351,0 z"
       id="rect4142-0" />
    <path
       inkscape:connector-curvature="0"
       style="opacity:1;fill:#ffffff;fill-opacity:1;stroke:#0087ff;stroke-width:0;stroke-miterlimit:4;stroke-opacity:0.75119617000000005;stroke-dasharray:none"
       d="m 0.07692259,1034.5081 0,5.5845 15.38557041,0 0,-5.5845 -15.38557041,0 z m 16.38384841,0 0,5.5845 7.574823,0 0,-5.5845 -7.574823,0 z"
       id="rect4142-3" />
    <path
       inkscape:connector-curvature="0"
       style="opacity:1;fill:#ffffff;fill-opacity:1;stroke:#0087ff;stroke-width:0;stroke-miterlimit:4;stroke-opacity:0.75119617000000005;stroke-dasharray:none"
       d="m 24.030193,1028.3585 0,5.5845 -15.3855697,0 0,-5.5845 15.3855697,0 z m -16.3838476,0 0,5.5845 -7.57482349,0 0,-5.5845 7.57482349,0 z"
       id="rect4142-2" />
    <path
       style="fill:#ffffff;fill-opacity:1;stroke:none;opacity:1"
       d="m 0.13180301,21.193087 0,-2.746352 7.67084589,0 7.6708461,0 0,2.746352 0,2.746352 -7.6708461,0 -7.67084589,0 0,-2.746352 z"
       id="path2991"
       inkscape:connector-curvature="0"
       transform="translate(0,1028.3622)" />
    <path
       style="fill:#ffffff;fill-opacity:1;stroke:none;opacity:1"
       d="m 0.13180301,15.100604 0,-2.777919 3.75650479,0 3.7565048,0 0,2.777919 0,2.77792 -3.7565048,0 -3.75650479,0 0,-2.77792 z"
       id="path2993"
       inkscape:connector-curvature="0"
       transform="translate(0,1028.3622)" />
    <path
       style="fill:#ffffff;fill-opacity:1;stroke:none"
       d="m 16.508901,21.193087 0,-2.746352 3.756505,0 3.756505,0 0,2.746352 0,2.746352 -3.756505,0 -3.756505,0 0,-2.746352 z"
       id="path3781"
       inkscape:connector-curvature="0"
       transform="translate(0,1028.3622)" />
    <path
       style="fill:#ffffff;fill-opacity:1;stroke:none"
       d="m 8.6802189,15.100604 0,-2.777919 7.6708461,0 7.670846,0 0,2.777919 0,2.77792 -7.670846,0 -7.6708461,0 0,-2.77792 z"
       id="path3783"
       inkscape:connector-curvature="0"
       transform="translate(0,1028.3622)" />
    <path
       style="fill:#ffffff;fill-opacity:1;stroke:none"
       d="m 16.508901,8.9449874 0,-2.7463522 3.756505,0 3.756505,0 0,2.7463522 0,2.7463526 -3.756505,0 -3.756505,0 0,-2.7463526 z"
       id="path3785"
       inkscape:connector-curvature="0"
       transform="translate(0,1028.3622)" />
    <path
       style="fill:#ffffff;fill-opacity:1;stroke:none"
       d="m 0.09392229,8.9449874 0,-2.7463522 7.67084591,0 7.6708458,0 0,2.7463522 0,2.7463526 -7.6708458,0 -7.67084591,0 0,-2.7463526 z"
       id="path3787"
       inkscape:connector-curvature="0"
       transform="translate(0,1028.3622)" />
    <path
       style="fill:#ffffff;fill-opacity:1;stroke:none"
       d="m 8.6802189,2.7893704 0,-2.77791954 7.6708461,0 7.670846,0 0,2.77791954 0,2.7779195 -7.670846,0 -7.6708461,0 0,-2.7779195 z"
       id="path3789"
       inkscape:connector-curvature="0"
       transform="translate(0,1028.3622)" />
    <path
       style="fill:#ffffff;fill-opacity:1;stroke:none"
       d="m 0.09392229,2.7893704 0,-2.77791954 3.75650481,0 3.7565047,0 0,2.77791954 0,2.7779195 -3.7565047,0 -3.75650481,0 0,-2.7779195 z"
       id="path3791"
       inkscape:connector-curvature="0"
       transform="translate(0,1028.3622)" />
  </g>
</svg>
